<svg width="185" height="40" viewBox="0 0 185 40" fill="none" xmlns="http://www.w3.org/2000/svg">
<path fill-rule="evenodd" clip-rule="evenodd" d="M12.837 5C13.254 5 13.592 5.336 13.592 5.75V11.297C13.592 11.464 13.795 11.548 13.914 11.43L19.945 5.44C20.229 5.158 20.613 5 21.013 5H27.626C27.826 5 28.018 5.08 28.16 5.22L30.425 7.47C30.495 7.53936 30.5506 7.62191 30.5886 7.71288C30.6265 7.80385 30.646 7.90144 30.646 8C30.646 8.09856 30.6265 8.19615 30.5886 8.28712C30.5506 8.37809 30.495 8.46064 30.425 8.53L27.506 11.43C27.4795 11.4562 27.4615 11.4896 27.4541 11.5261C27.4468 11.5626 27.4505 11.6004 27.4648 11.6348C27.4791 11.6691 27.5033 11.6985 27.5343 11.719C27.5653 11.7395 27.6018 11.7503 27.639 11.75H33.667C33.867 11.75 34.059 11.83 34.201 11.97L36.466 14.22C36.536 14.2894 36.5916 14.3719 36.6296 14.4629C36.6675 14.5539 36.687 14.6514 36.687 14.75C36.687 14.8486 36.6675 14.9461 36.6296 15.0371C36.5916 15.1281 36.536 15.2106 36.466 15.28L33.491 18.235C33.456 18.2697 33.4282 18.311 33.4092 18.3564C33.3903 18.4019 33.3805 18.4507 33.3805 18.5C33.3805 18.5493 33.3903 18.5981 33.4092 18.6436C33.4282 18.689 33.456 18.7303 33.491 18.765L35.932 21.189C36.2699 21.5243 36.5382 21.9232 36.7212 22.3626C36.9042 22.8021 36.9985 23.2734 36.9985 23.7495C36.9985 24.2256 36.9042 24.6969 36.7212 25.1364C36.5382 25.5758 36.2699 25.9747 35.932 26.31L27.626 34.56C27.343 34.842 26.959 35 26.558 35H24.163C23.9635 35.0005 23.7719 34.9218 23.6303 34.7812C23.4888 34.6406 23.4088 34.4495 23.408 34.25V28.703C23.4078 28.6658 23.3965 28.6295 23.3758 28.5987C23.355 28.5678 23.3255 28.5438 23.2912 28.5296C23.2568 28.5154 23.219 28.5117 23.1825 28.5188C23.146 28.526 23.1124 28.5438 23.086 28.57L17.055 34.56C16.771 34.842 16.387 35 15.987 35H9.37401C9.17401 35 8.98201 34.92 8.84001 34.78L6.57501 32.53C6.50499 32.4606 6.4494 32.3781 6.41147 32.2871C6.37353 32.1961 6.354 32.0986 6.354 32C6.354 31.9014 6.37353 31.8039 6.41147 31.7129C6.4494 31.6219 6.50499 31.5394 6.57501 31.47L9.49401 28.57C9.52048 28.5438 9.53854 28.5104 9.54589 28.4739C9.55323 28.4374 9.54953 28.3996 9.53524 28.3652C9.52096 28.3309 9.49675 28.3015 9.46572 28.281C9.43468 28.2605 9.39822 28.2497 9.36101 28.25H3.33301C3.13301 28.25 2.94101 28.17 2.79901 28.03L0.534012 25.78C0.463988 25.7106 0.408403 25.6281 0.370469 25.5371C0.332534 25.4461 0.313003 25.3486 0.313003 25.25C0.313003 25.1514 0.332534 25.0539 0.370469 24.9629C0.408403 24.8719 0.463988 24.7894 0.534012 24.72L3.50901 21.765C3.54402 21.7303 3.57182 21.689 3.59078 21.6436C3.60975 21.5981 3.61952 21.5493 3.61952 21.5C3.61952 21.4507 3.60975 21.4019 3.59078 21.3564C3.57182 21.311 3.54402 21.2697 3.50901 21.235L1.06801 18.81C0.730226 18.4747 0.462133 18.0759 0.279183 17.6365C0.0962336 17.1972 0.00204468 16.7259 0.00204468 16.25C0.00204468 15.7741 0.0962336 15.3028 0.279183 14.8635C0.462133 14.4241 0.730226 14.0253 1.06801 13.69L9.37401 5.44C9.65701 5.158 10.041 5 10.442 5H12.837ZM15.156 11.75C14.1559 11.7497 13.1961 12.1447 12.486 12.849L4.42001 20.859C4.36717 20.9115 4.33116 20.9786 4.31658 21.0516C4.302 21.1247 4.30951 21.2004 4.33816 21.2692C4.36681 21.338 4.41529 21.3967 4.47742 21.4378C4.53955 21.4789 4.61251 21.5005 4.68701 21.5H15.7C16.036 21.5 16.205 21.904 15.967 22.14L10.46 27.61C10.4075 27.6626 10.3718 27.7295 10.3574 27.8024C10.3431 27.8753 10.3506 27.9508 10.3792 28.0194C10.4079 28.088 10.4562 28.1465 10.5181 28.1875C10.58 28.2286 10.6527 28.2503 10.727 28.25H21.843C22.8432 28.2503 23.8029 27.8553 24.513 27.151L32.579 19.141C32.6283 19.0922 32.6631 19.0306 32.6795 18.9632C32.6959 18.8958 32.6933 18.8251 32.672 18.7591C32.6506 18.6931 32.6114 18.6343 32.5586 18.5893C32.5058 18.5442 32.4416 18.5147 32.373 18.504L32.313 18.5H21.298C21.2237 18.5003 21.151 18.4786 21.0891 18.4375C21.0272 18.3965 20.9789 18.338 20.9502 18.2694C20.9216 18.2008 20.914 18.1253 20.9284 18.0524C20.9428 17.9795 20.9785 17.9126 21.031 17.86L26.538 12.39C26.5905 12.3374 26.6262 12.2705 26.6406 12.1976C26.655 12.1247 26.6474 12.0492 26.6188 11.9806C26.5902 11.912 26.5418 11.8535 26.4799 11.8125C26.418 11.7714 26.3453 11.7497 26.271 11.75H15.156Z" fill="#9FA1A0"/>
<path d="M48.843 31.9999V7.26394H56.297L60.381 18.7849C60.613 19.5149 60.901 20.4669 61.244 21.6409C61.5822 22.7499 61.9088 23.8623 62.224 24.9779C62.523 23.9149 62.844 22.8029 63.187 21.6409L64.05 18.7849L68.084 7.26394H75.538V31.9999H70.541V20.2459C70.541 19.3829 70.558 18.2759 70.591 16.9259C70.635 15.5759 70.674 14.2199 70.707 12.8579C70.2889 14.2517 69.8739 15.6463 69.462 17.0419C69.064 18.3819 68.732 19.4489 68.466 20.2459L64.282 31.9999H60.132L55.898 20.2459C55.5634 19.2302 55.2367 18.2118 54.918 17.1909L53.707 13.2069L53.807 17.0919C53.84 18.3649 53.857 19.4159 53.857 20.2459V31.9999H48.843ZM87.275 32.3979C85.505 32.3979 83.949 32.0169 82.61 31.2529C81.2939 30.501 80.2134 29.397 79.49 28.0649C78.748 26.6929 78.377 25.0879 78.377 23.2509C78.377 21.4139 78.747 19.8089 79.489 18.4359C80.2091 17.0969 81.2904 15.9869 82.61 15.2319C83.95 14.4579 85.505 14.0699 87.275 14.0699C89.057 14.0699 90.612 14.4579 91.94 15.2319C93.2645 15.9806 94.3474 17.0923 95.061 18.4359C95.814 19.8089 96.191 21.4139 96.191 23.2509C96.191 25.0769 95.814 26.6759 95.061 28.0489C94.3477 29.3925 93.2652 30.5042 91.941 31.2529C90.612 32.0169 89.057 32.3979 87.275 32.3979ZM87.275 28.4309C88.471 28.4309 89.434 27.9769 90.165 27.0689C90.895 26.1509 91.26 24.8779 91.26 23.2509C91.26 21.6129 90.894 20.3349 90.164 19.4159C89.434 18.4969 88.471 18.0379 87.275 18.0379C86.091 18.0379 85.134 18.4979 84.403 19.4159C83.673 20.3349 83.308 21.6129 83.308 23.2509C83.308 24.8779 83.673 26.1509 84.403 27.0689C85.133 27.9769 86.091 28.4309 87.275 28.4309ZM103.794 22.2549V31.9999H98.897V14.4689H103.711V17.2249C104.309 16.2279 105.056 15.4589 105.952 14.9169C106.849 14.3749 107.928 14.1039 109.189 14.1039C111.049 14.1039 112.537 14.7069 113.655 15.9139C114.773 17.1079 115.332 18.8129 115.332 21.0259V31.9999H110.451V21.9229C110.451 20.7499 110.169 19.8589 109.604 19.2499C109.04 18.6299 108.249 18.3199 107.23 18.3199C106.223 18.3199 105.399 18.6359 104.757 19.2669C104.115 19.8969 103.794 20.8939 103.794 22.2549ZM125.642 32.3649C124.114 32.3649 122.781 31.9829 121.641 31.2199C120.501 30.4559 119.615 29.3879 118.984 28.0159C118.365 26.6429 118.055 25.0439 118.055 23.2179C118.055 21.4249 118.37 19.8419 119.001 18.4699C119.643 17.0969 120.528 16.0299 121.657 15.2659C122.797 14.4909 124.114 14.1039 125.608 14.1039C126.737 14.1039 127.739 14.3359 128.613 14.8009C129.488 15.2549 130.207 15.9509 130.771 16.8929H130.788V7.26294H135.669V31.9999H130.854V29.3099H130.838C130.329 30.3289 129.62 31.0919 128.713 31.6019C127.816 32.1109 126.793 32.3649 125.642 32.3649ZM126.903 28.3809C128.143 28.3809 129.139 27.9159 129.892 26.9859C130.644 26.0459 131.021 24.7889 131.021 23.2179C131.021 21.6579 130.644 20.4069 129.892 19.4659C129.139 18.5259 128.143 18.0549 126.903 18.0549C125.719 18.0549 124.767 18.5089 124.048 19.4159C123.34 20.3119 122.985 21.5799 122.985 23.2179C122.985 24.8559 123.34 26.1279 124.048 27.0359C124.767 27.9329 125.719 28.3809 126.903 28.3809ZM147.273 32.3979C145.503 32.3979 143.948 32.0169 142.608 31.2529C141.292 30.501 140.211 29.397 139.487 28.0649C138.746 26.6929 138.375 25.0879 138.375 23.2509C138.375 21.4139 138.746 19.8089 139.487 18.4359C140.24 17.0639 141.28 15.9959 142.608 15.2319C143.948 14.4579 145.503 14.0699 147.273 14.0699C149.055 14.0699 150.61 14.4579 151.938 15.2319C153.263 15.9804 154.346 17.0921 155.06 18.4359C155.812 19.8089 156.188 21.4139 156.188 23.2509C156.188 25.0769 155.812 26.6759 155.06 28.0489C154.346 29.3928 153.263 30.5044 151.938 31.2529C150.61 32.0169 149.055 32.3979 147.273 32.3979ZM147.273 28.4309C148.469 28.4309 149.432 27.9769 150.162 27.0689C150.893 26.1509 151.258 24.8779 151.258 23.2509C151.258 21.6129 150.893 20.3349 150.162 19.4159C149.432 18.4969 148.469 18.0379 147.273 18.0379C146.089 18.0379 145.132 18.4979 144.401 19.4159C143.671 20.3349 143.306 21.6129 143.306 23.2509C143.306 24.8779 143.671 26.1509 144.401 27.0689C145.132 27.9769 146.089 28.4309 147.273 28.4309ZM163.792 7.26394V31.9999H158.895V7.26394H163.792ZM175.264 32.3979C173.493 32.3979 171.949 32.0049 170.632 31.2199C169.335 30.443 168.277 29.3223 167.577 27.9819C166.858 26.5989 166.498 25.0219 166.498 23.2509C166.498 21.4689 166.863 19.8859 167.594 18.5029C168.335 17.1189 169.354 16.0349 170.648 15.2489C171.943 14.4629 173.426 14.0699 175.098 14.0699C176.824 14.0699 178.329 14.4579 179.613 15.2319C180.908 15.9959 181.915 17.0639 182.635 18.4359C183.365 19.7979 183.73 21.3689 183.73 23.1509V24.4629H171.263C171.307 25.7579 171.689 26.7929 172.408 27.5669C173.128 28.3419 174.129 28.7299 175.413 28.7299C176.365 28.7299 177.156 28.5249 177.787 28.1149C178.429 27.7049 178.861 27.1629 179.082 26.4879H183.548C183.348 27.6287 182.837 28.692 182.07 29.5599C181.296 30.4449 180.322 31.1419 179.148 31.6509C177.975 32.1489 176.68 32.3979 175.264 32.3979ZM171.296 21.3419H179.115C178.993 20.2459 178.584 19.3819 177.887 18.7519C177.201 18.1099 176.304 17.7889 175.197 17.7889C174.102 17.7889 173.211 18.1099 172.524 18.7519C171.838 19.3819 171.429 20.2459 171.296 21.3419Z" fill="#9FA1A0"/>
</svg>
