<svg width="9" height="16" viewBox="0 0 9 16" fill="none" xmlns="http://www.w3.org/2000/svg">
<path d="M0.00558448 6.67203C0.00581148 6.42024 0.0179742 6.19784 0.00308227 5.97726C-0.0137078 5.72855 0.0847344 5.6341 0.33471 5.63884C0.900948 5.64959 1.46802 5.62851 2.03377 5.64824C2.32018 5.65822 2.4147 5.53251 2.41578 5.27866C2.41843 4.6542 2.42112 4.02974 2.42578 3.40529C2.44081 1.39083 3.83167 0.00822741 5.84965 0.000637502C6.51677 -0.00187131 7.18327 0.000182714 7.84902 0.0612911C8.07451 0.0819876 8.17324 0.16266 8.16985 0.395774C8.16049 1.04028 8.1588 1.68511 8.16877 2.32959C8.17258 2.57514 8.06249 2.64103 7.83774 2.63697C7.38277 2.62873 6.92733 2.6313 6.47235 2.6413C5.72223 2.65777 5.34105 3.03537 5.32264 3.78954C5.3101 4.30294 5.32944 4.81715 5.31497 5.33045C5.30824 5.56944 5.3954 5.64984 5.63047 5.64624C6.29791 5.63599 6.9656 5.64107 7.63319 5.64224C8.06148 5.64299 8.05612 5.6446 8.00153 6.06095C7.91143 6.74816 7.82118 7.43559 7.74929 8.12482C7.72221 8.38437 7.62613 8.49738 7.3517 8.48968C6.80593 8.47437 6.25888 8.49976 5.71341 8.47977C5.41378 8.46879 5.31058 8.55499 5.31252 8.8684C5.32535 10.9433 5.31899 13.0182 5.31834 15.0932C5.31821 15.5202 5.31715 15.5209 4.88348 15.5211C4.15519 15.5215 3.42685 15.5155 2.69867 15.5239C2.48056 15.5264 2.40634 15.4674 2.40775 15.2315C2.42043 13.1164 2.41602 11.0012 2.42205 8.88605C2.42287 8.59901 2.3238 8.46708 2.01279 8.47803C1.46725 8.49722 0.920404 8.47603 0.374407 8.48682C0.108562 8.49208 -0.0108906 8.40856 0.000777381 8.12216C0.0200317 7.64956 0.00573365 7.17561 0.00558448 6.67203Z" fill="white"/>
</svg>
